<?xml version="1.0" encoding="UTF-8" standalone="no"?>
<svg
   xmlns:dc="http://purl.org/dc/elements/1.1/"
   xmlns:cc="http://creativecommons.org/ns#"
   xmlns:rdf="http://www.w3.org/1999/02/22-rdf-syntax-ns#"
   xmlns:svg="http://www.w3.org/2000/svg"
   xmlns="http://www.w3.org/2000/svg"
   xmlns:xlink="http://www.w3.org/1999/xlink"
   version="1.1"
   id="svg4173"
   viewBox="0 0 319 74.000001">
  <defs
     id="defs4175">
    <linearGradient
       xlink:href="#linearGradient3862"
       id="linearGradient4146"
       x1="-1051.4296"
       y1="7.7517705"
       x2="-1037.0292"
       y2="7.7517705"
       gradientUnits="userSpaceOnUse" />
    <linearGradient
       id="linearGradient3862">
      <stop
         style="stop-color:#6c3aa3;stop-opacity:1;"
         offset="0"
         id="stop3864" />
      <stop
         style="stop-color:#3252a3;stop-opacity:1;"
         offset="1"
         id="stop3866" />
    </linearGradient>
    <linearGradient
       xlink:href="#linearGradient3862"
       id="linearGradient3365"
       gradientUnits="userSpaceOnUse"
       gradientTransform="matrix(3.006253,0,0,3.006253,-1099.4381,-1145.6235)"
       x1="190.94325"
       y1="544.62085"
       x2="402.76257"
       y2="544.62085" />
  </defs>
  <metadata
     id="metadata4178">
    <rdf:RDF>
      <cc:Work
         rdf:about="">
        <dc:format>image/svg+xml</dc:format>
        <dc:type
           rdf:resource="http://purl.org/dc/dcmitype/StillImage" />
        <dc:title></dc:title>
      </cc:Work>
    </rdf:RDF>
  </metadata>
  <g
     transform="translate(0,-978.36216)"
     id="layer1">
    <g
       id="text3219"
       style="font-style:normal;font-variant:normal;font-weight:normal;font-stretch:normal;font-size:90px;line-height:150%;font-family:'Open Sans';-inkscape-font-specification:'Open Sans';text-align:start;letter-spacing:0px;word-spacing:0px;writing-mode:lr-tb;text-anchor:start;fill:#ffffff;fill-opacity:1;stroke:none"
       transform="matrix(0,-1,1,0,0,0)">
      <path
         id="path4935"
         style="font-style:normal;font-variant:normal;font-weight:bold;font-stretch:normal;font-size:90px;line-height:150%;font-family:'Jaapokki enchance';-inkscape-font-specification:'Jaapokki enchance Bold';text-align:start;letter-spacing:30.06253052px;writing-mode:lr-tb;text-anchor:start;fill:#ffffff;fill-opacity:1"
         d="m -1033.7213,25.110002 c 0.99,-2.52 2.52,-4.77 4.5,-6.66 3.78,-3.78 8.82,-5.85 14.13,-5.85 l 0.18,0 c 4.05,0.09 7.83,1.26 11.07,3.51 l 9.08997,-8.9100003 c -5.48997,-4.41 -12.41997,-7.11000002 -20.06997,-7.2000000215332 l -0.27,0 c -17.91,0 -32.49,14.4000003215332 -32.67,32.3100003215332 -0.18,18.09 14.22,32.58 32.31,32.76 4.77,0 12.51,-1.53 19.88997,-7.38 l 0,6.3 12.6,0 0,-38.88 -50.75997,0 z m 38.06997,12.6 c -0.9,3.51 -2.7,6.66 -5.39997,9.27 -3.78,3.69 -8.73,5.76 -14.04,5.76 l -0.27,0 c -5.31,0 -10.35,-2.16 -14.13,-6.03 -2.43,-2.52 -4.23,-5.67 -5.04,-9 l 38.87997,0 z" />
    </g>
    <g
       id="text4905"
       style="font-style:normal;font-weight:normal;font-size:22.5px;line-height:125%;font-family:sans-serif;letter-spacing:8px;word-spacing:0px;fill:#000000;fill-opacity:1;stroke:none;stroke-width:1px;stroke-linecap:butt;stroke-linejoin:miter;stroke-opacity:1">
      <path
         id="path4916"
         style="font-style:normal;font-variant:normal;font-weight:500;font-stretch:normal;font-size:22.5px;font-family:Helvetica;-inkscape-font-specification:'Helvetica Medium';letter-spacing:8px;fill:#ffffff;fill-opacity:1"
         d="m 115.995,1021.5046 -9.7425,0 0,-5.4 8.8425,0 0,-1.935 -8.8425,0 0,-4.95 9.585,0 0,-1.935 -11.7675,0 0,16.155 11.925,0 0,-1.935 z" />
      <path
         id="path4918"
         style="font-style:normal;font-variant:normal;font-weight:500;font-stretch:normal;font-size:22.5px;font-family:Helvetica;-inkscape-font-specification:'Helvetica Medium';letter-spacing:8px;fill:#ffffff;fill-opacity:1"
         d="m 126.9868,1023.4396 6.4575,0 c 5.31,0 6.885,-4.68 6.885,-8.3025 0,-4.6575 -2.5875,-7.8525 -6.795,-7.8525 l -6.5475,0 0,16.155 z m 2.1825,-14.2875 4.0725,0 c 2.97,0 4.8375,2.0475 4.8375,6.12 0,4.0725 -1.845,6.3 -4.68,6.3 l -4.23,0 0,-12.42 z" />
      <path
         id="path4920"
         style="font-style:normal;font-variant:normal;font-weight:500;font-stretch:normal;font-size:22.5px;font-family:Helvetica;-inkscape-font-specification:'Helvetica Medium';letter-spacing:8px;fill:#ffffff;fill-opacity:1"
         d="m 161.73156,1007.2846 0,10.215 c 0,3.51 -2.25,4.4325 -4.2525,4.4325 -1.9575,0 -4.095,-0.9675 -4.095,-4.4775 l 0,-10.17 -2.1825,0 0,10.7775 c 0,3.015 1.8675,5.805 6.21,5.805 4.4325,0 6.5025,-2.79 6.5025,-6.0975 l 0,-10.485 -2.1825,0 z" />
      <path
         id="path4922"
         style="font-style:normal;font-variant:normal;font-weight:500;font-stretch:normal;font-size:22.5px;font-family:Helvetica;-inkscape-font-specification:'Helvetica Medium';letter-spacing:8px;fill:#ffffff;fill-opacity:1"
         d="m 188.84883,1012.1446 c -0.315,-2.7 -2.475,-5.2875 -6.6375,-5.2875 -4.7025,0 -7.5375,3.4425 -7.5375,8.415 0,6.21 3.6,8.595 7.2675,8.595 1.215,0 6.165,-0.27 7.065,-6.3675 l -2.115,0 c -0.7425,3.7575 -3.195,4.4325 -4.6125,4.4325 -4.005,0 -5.355,-2.925 -5.355,-6.7275 0,-4.2525 2.3625,-6.4125 5.2875,-6.4125 1.5525,0 3.915,0.5175 4.5225,3.3525 l 2.115,0 z" />
      <path
         id="path4924"
         style="font-style:normal;font-variant:normal;font-weight:500;font-stretch:normal;font-size:22.5px;font-family:Helvetica;-inkscape-font-specification:'Helvetica Medium';letter-spacing:8px;fill:#ffffff;fill-opacity:1"
         d="m 208.6761,1018.7371 1.5975,4.7025 2.385,0 -5.85,-16.155 -2.475,0 -6.075,16.155 2.25,0 1.6875,-4.7025 6.48,0 z m -5.805,-1.935 2.5875,-7.11 0.045,0 2.385,7.11 -5.0175,0 z" />
      <path
         id="path4926"
         style="font-style:normal;font-variant:normal;font-weight:500;font-stretch:normal;font-size:22.5px;font-family:Helvetica;-inkscape-font-specification:'Helvetica Medium';letter-spacing:8px;fill:#ffffff;fill-opacity:1"
         d="m 218.60723,1009.2196 5.4675,0 0,14.22 2.1825,0 0,-14.22 5.4675,0 0,-1.935 -13.1175,0 0,1.935 z" />
      <path
         id="path4928"
         style="font-style:normal;font-variant:normal;font-weight:500;font-stretch:normal;font-size:22.5px;font-family:Helvetica;-inkscape-font-specification:'Helvetica Medium';letter-spacing:8px;fill:#ffffff;fill-opacity:1"
         d="m 244.27711,1007.2846 -2.1825,0 0,16.155 2.1825,0 0,-16.155 z" />
      <path
         id="path4930"
         style="font-style:normal;font-variant:normal;font-weight:500;font-stretch:normal;font-size:22.5px;font-family:Helvetica;-inkscape-font-specification:'Helvetica Medium';letter-spacing:8px;fill:#ffffff;fill-opacity:1"
         d="m 268.66485,1015.3621 c 0,3.8025 -2.115,6.57 -5.625,6.57 -3.51,0 -5.625,-2.7675 -5.625,-6.57 0,-3.8025 2.115,-6.57 5.625,-6.57 3.51,0 5.625,2.7675 5.625,6.57 z m 2.25,0 c 0,-3.4875 -1.845,-8.505 -7.875,-8.505 -6.03,0 -7.875,5.0175 -7.875,8.505 0,3.4875 1.845,8.505 7.875,8.505 6.03,0 7.875,-5.0175 7.875,-8.505 z" />
      <path
         id="path4932"
         style="font-style:normal;font-variant:normal;font-weight:500;font-stretch:normal;font-size:22.5px;font-family:Helvetica;-inkscape-font-specification:'Helvetica Medium';letter-spacing:8px;fill:#ffffff;fill-opacity:1"
         d="m 292.19758,1020.3346 -0.045,0 -8.0775,-13.05 -2.5875,0 0,16.155 2.115,0 0,-13.05 0.045,0 8.2125,13.05 2.4525,0 0,-16.155 -2.115,0 0,13.05 z" />
    </g>
    <rect
       y="1000.3622"
       x="84.07"
       height="30"
       width="1"
       id="rect4913"
       style="fill:#ffffff;fill-opacity:1" />
  </g>
</svg>
